<?xml version="1.0" encoding="UTF-8" standalone="no"?>
<!-- Created with Inkscape (http://www.inkscape.org/) -->

<svg
   version="1.1"
   id="svg1"
   width="1197.1521"
   height="766.7077"
   viewBox="0 0 1197.1521 766.7077"
   sodipodi:docname="m-book.png"
   inkscape:version="1.4.4 (dcaf3e7, 2026-05-05)"
   xmlns:inkscape="http://www.inkscape.org/namespaces/inkscape"
   xmlns:sodipodi="http://sodipodi.sourceforge.net/DTD/sodipodi-0.dtd"
   xmlns="http://www.w3.org/2000/svg"
   xmlns:svg="http://www.w3.org/2000/svg">
  <defs
     id="defs1" />
  <sodipodi:namedview
     id="namedview1"
     pagecolor="#ffffff"
     bordercolor="#000000"
     borderopacity="0.25"
     inkscape:showpageshadow="2"
     inkscape:pageopacity="0.0"
     inkscape:pagecheckerboard="0"
     inkscape:deskcolor="#d1d1d1"
     inkscape:zoom="0.67763158"
     inkscape:cx="834.52427"
     inkscape:cy="833.04854"
     inkscape:window-width="3440"
     inkscape:window-height="1351"
     inkscape:window-x="-9"
     inkscape:window-y="-9"
     inkscape:window-maximized="1"
     inkscape:current-layer="g1" />
  <g
     inkscape:groupmode="layer"
     inkscape:label="Image"
     id="g1"
     transform="translate(-2.1682814,-3.0784002)">
    <path
       style="fill:#000000"
       d="m 544.83494,767.09389 c -1.46667,-1.4667 -2.66667,-3.265 -2.66667,-3.9962 0,-5.5001 -18.11754,-19.1539 -39.59559,-29.8402 -98.4453,-48.9809 -295.06119,-61.475 -474.173078,-30.1316 -8.19389,1.4339 -16.247981,2.6132 -17.897981,2.6208 -3.9872296,0.018 -8.3333396,-4.5031 -8.3333396,-8.6696 0,-2.766 37.3647906,-97.9799 61.9973406,-157.98323 12.52276,-30.50463 61.638298,-151.63048 68.663288,-169.33334 8.83388,-22.26122 22.91755,-55.27748 24.31436,-57 1.72777,-2.13064 75.69167,-2.44755 75.69167,-0.3243 0,0.7383 -3.9574,12.8883 -8.79421,27 -4.83682,14.1117 -10.17611,29.85764 -11.8651,34.99097 -1.68898,5.13333 -9.69513,28.83333 -17.79145,52.66667 -35.39063,104.18034 -61.35827,181.96873 -60.89889,182.42813 0.2732,0.2732 13.28864,-0.7575 28.92319,-2.2905 193.35631,-18.9587 346.83187,15.3078 431.33735,96.3046 l 6.91088,6.624 9.08912,-8.3966 c 54.57542,-50.4171 134.49142,-81.4157 244.42241,-94.8089 44.819,-5.4605 137.4541,-5.0354 191.33346,0.8779 9.5333,1.0463 18.637,1.9081 20.2304,1.9152 2.7397,0.012 2.1851,-2.1053 -10.2128,-38.9872 -26.0268,-77.42586 -58.82352,-174.52994 -73.17886,-216.66663 l -14.6494,-43 h 37.74206 c 28.5837,0 38.0701,0.40442 39.094,1.66666 0.7436,0.91667 8.5799,19.66667 17.414,41.66667 14.9351,37.19376 30.8919,76.44168 52.8533,130 12.6546,30.86137 19.279,47.26733 50.607,125.3333 15.1558,37.7667 28.1016,69.8667 28.7684,71.3334 6.2017,13.6413 6.6166,17.6616 2.2459,21.7675 -3.3473,3.1447 -7.7417,3.5666 -16.3764,1.5724 -14.4437,-3.3358 -64.7687,-10.1833 -102.3323,-13.9238 -130.12726,-12.958 -273.47376,0.3562 -357.65028,33.2188 -29.52334,11.5259 -51.02446,24.5887 -57.66494,35.0336 -7.68665,12.0905 -1.57261,10.9981 -61.55684,10.9981 -51.55556,0 -53.42222,-0.089 -56,-2.6666 z M 328.01222,527.47588 c -5.97364,-0.75394 -5.81938,3.58486 -5.83236,-164.03918 l -0.0116,-149.65716 8.62505,5.65716 c 4.74377,3.11144 29.79377,20.02688 55.66666,37.58988 25.8729,17.563 55.54933,37.663 65.94763,44.66666 10.8284,7.29336 19.22322,13.87329 19.64846,15.40062 1.62863,5.84949 0.78766,117.2494 -0.90745,120.20714 -1.72328,3.0069 -127.18378,87.33554 -133.51556,89.74288 -2.00111,0.76082 -4.04933,1.28729 -4.55159,1.16993 -0.50226,-0.11736 -2.78342,-0.44943 -5.06925,-0.73793 z m 534.82272,-0.32308 c -5.1104,-2.23656 -131.89299,-88.05714 -132.99457,-90.02556 -1.36159,-2.43303 -1.3431,-119.00249 0.0193,-121.42855 0.53642,-0.95523 10.57531,-8.16822 22.30864,-16.02884 22.77967,-15.26099 63.34387,-42.64095 103.04067,-69.5502 l 24.374,-16.5224 -0.374,157.08164 -0.374,157.08163 -6.6667,0.27967 c -3.6666,0.15382 -7.8666,-0.24551 -9.3333,-0.88739 z m -318,-178.87224 c -62.57787,-42.23787 -89.28662,-60.31066 -126.66667,-85.7105 -14.3,-9.71689 -41.75,-28.31176 -61,-41.32193 l -35,-23.65485 v -92.64926 c 0,-100.0231051 -0.0622,-99.1183255 6.94661,-100.9958251 8.30901,-2.22579 8.87044,-1.88565 123.3991,74.7604701 62.14319,41.588145 120.9756,80.908215 130.73869,87.377915 l 17.75106,11.7631 14.24894,-9.59852 C 778.79454,58.084325 862.60424,3.0938549 866.96494,3.0938549 c 12.9864,0 12.5367,-3.6836904 12.5367,102.6917251 v 91.62712 l -35,23.60993 c -19.25,12.98546 -43.1,29.1269 -53,35.86986 -9.9,6.74296 -34.80003,23.70376 -55.33337,37.69067 -37.42505,25.49323 -135.40826,91.23521 -135.79432,91.11141 -0.11312,-0.0363 -25.10568,-16.87258 -55.53901,-37.41401 z"
       id="path1" />
  </g>
</svg>
